<svg id="ejdoIzXN0YM1" xmlns="http://www.w3.org/2000/svg" xmlns:xlink="http://www.w3.org/1999/xlink" viewBox="0 0 3000 3000" shape-rendering="geometricPrecision" text-rendering="geometricPrecision"><defs><linearGradient id="ejdoIzXN0YM3-stroke" x1="0" y1="0.5" x2="1" y2="0.5" spreadMethod="pad" gradientUnits="objectBoundingBox" gradientTransform="translate(0 0)"><stop id="ejdoIzXN0YM3-stroke-0" offset="0%" stop-color="#bc58ff"/><stop id="ejdoIzXN0YM3-stroke-1" offset="100%" stop-color="#fff"/></linearGradient><linearGradient id="ejdoIzXN0YM4-stroke" x1="0" y1="0.5" x2="1" y2="0.5" spreadMethod="pad" gradientUnits="objectBoundingBox" gradientTransform="translate(0 0)"><stop id="ejdoIzXN0YM4-stroke-0" offset="0%" stop-color="#fff"/><stop id="ejdoIzXN0YM4-stroke-1" offset="100%" stop-color="#bc58ff"/></linearGradient></defs><g transform="matrix(1.227565 0 0 1.227565-292.237707-286.472746)"><path d="M1064.69239,1603.18688c-6.8538-8.71698-13.49576-17.53287-19.92662-26.44147c49.73575-172.00821,157.72589-328.2355,317.70002-436.30267c89.30158-60.32581,186.47848-100.0213,285.89829-120.1772c244.68122,223.02665,320.07324,570.02452,206.18396,868.15279-286.66406,61.40523-596.43856-39.23466-789.85566-285.23145h.00001ZM621.26396,2226.89884c190.51437,151.01169,428.9727,200.39365,649.95423,155.71263c264.19538,241.91603,668.90077,280.99471,978.77906,71.66293c362.80632-245.08621,458.23827-737.87907,213.15323-1100.68367-4.50571-6.66991-9.09515-13.24944-13.76596-19.73816c68.41654-236.84075,25.70987-502.06849-138.29438-710.65667-270.61575-344.18159-769.0088-403.81745-1113.19203-133.20042-117.18954,92.14129-201.39159,210.68876-250.8019,340.56435-173.57895,37.20942-335.76927,132.65055-454.6521,282.63156-271.96937,343.11298-214.29476,841.73679,128.81985,1113.70745Z" fill="#7b02f4" stroke="url(#ejdoIzXN0YM3-stroke)" stroke-width="0"/><path d="M947.09621,830.55984c223.51925-47.91492,465.92308.72973,659.05596,153.817c14.58772,11.563,28.65949,23.53569,42.21191,35.8887c297.06829-60.22621,614.16189,54.00213,801.02043,313.58704-44.47439,153.9591-135.90603,295.92272-271.5001,402.53473-98.18527,77.19902-208.92001,127.52233-323.33637,152.03102-28.17417,73.7516-67.93195,144.51248-119.57602,209.66596-120.95839,152.59951-286.74968,248.73811-463.75383,284.52719-45.12527-41.3199-86.15137-88.55729-121.90563-141.48507-137.01838-202.83123-167.60706-446.29071-104.54679-664.38099c0,0,0-.00001-.00001-.00001v-.00001c-161.0307-223.07408-189.70095-504.27992-97.66955-746.18556Zm117.59617,772.62704c193.4171,245.99679,503.1916,346.63668,789.85566,285.23145c113.88928-298.12827,38.49726-645.12614-206.18396-868.15279-99.41981,20.1559-196.59671,59.85139-285.89829,120.1772-159.97413,108.06717-267.96427,264.29446-317.70002,436.30267c6.43086,8.9086,13.07282,17.72449,19.92662,26.44147h-.00001Z" transform="translate(.000001 0)" fill="#995bff" stroke="url(#ejdoIzXN0YM4-stroke)" stroke-width="0"/></g></svg>
