<?xml version="1.0" encoding="UTF-8"?>
<svg xmlns="http://www.w3.org/2000/svg" xmlns:xlink="http://www.w3.org/1999/xlink" width="50px" height="50px" viewBox="0 0 50 50" version="1.1">
<g id="surface1">
<path style=" stroke:none;fill-rule:nonzero;fill:rgb(48.235294%,0.784314%,95.686275%);fill-opacity:1;" d="M 16.914062 28.027344 C 16.773438 27.847656 16.636719 27.667969 16.503906 27.484375 C 17.523438 23.964844 19.730469 20.769531 23.003906 18.558594 C 24.832031 17.324219 26.820312 16.511719 28.855469 16.097656 C 33.859375 20.664062 35.402344 27.761719 33.074219 33.863281 C 27.207031 35.117188 20.871094 33.058594 16.914062 28.027344 Z M 7.839844 40.785156 C 11.738281 43.875 16.617188 44.886719 21.136719 43.972656 C 26.542969 48.921875 34.824219 49.722656 41.164062 45.4375 C 48.585938 40.425781 50.539062 30.34375 45.523438 22.917969 C 45.433594 22.78125 45.339844 22.648438 45.242188 22.515625 C 46.640625 17.667969 45.769531 12.242188 42.414062 7.976562 C 36.875 0.933594 26.679688 -0.285156 19.636719 5.25 C 17.238281 7.136719 15.515625 9.5625 14.507812 12.21875 C 10.957031 12.980469 7.636719 14.933594 5.203125 18 C -0.359375 25.019531 0.820312 35.222656 7.839844 40.785156 Z M 7.839844 40.785156 "/>
<path style=" stroke:none;fill-rule:nonzero;fill:rgb(60%,35.686275%,100%);fill-opacity:1;" d="M 14.507812 12.21875 C 19.078125 11.238281 24.039062 12.234375 27.992188 15.363281 C 28.289062 15.601562 28.578125 15.847656 28.855469 16.097656 C 34.933594 14.867188 41.417969 17.203125 45.242188 22.515625 C 44.332031 25.664062 42.460938 28.570312 39.6875 30.75 C 37.679688 32.332031 35.414062 33.359375 33.074219 33.863281 C 32.496094 35.371094 31.683594 36.816406 30.625 38.152344 C 28.152344 41.273438 24.757812 43.238281 21.136719 43.972656 C 20.214844 43.125 19.375 42.160156 18.644531 41.078125 C 15.839844 36.929688 15.214844 31.945312 16.503906 27.484375 C 13.210938 22.921875 12.625 17.167969 14.507812 12.21875 Z M 16.914062 28.027344 C 20.871094 33.058594 27.207031 35.117188 33.074219 33.863281 C 35.402344 27.761719 33.859375 20.664062 28.855469 16.097656 C 26.820312 16.511719 24.832031 17.324219 23.003906 18.558594 C 19.730469 20.769531 17.523438 23.964844 16.503906 27.484375 C 16.636719 27.667969 16.773438 27.847656 16.914062 28.027344 Z M 16.914062 28.027344 "/>
</g>
</svg>
